<svg id="Layer_1" enable-background="new 0 0 498.51 498.51" height="512" viewBox="0 0 498.51 498.51" width="512" xmlns="http://www.w3.org/2000/svg"><g><path d="m307.592 84.853c-5.487 5.487-60.509 60.509-63.64 63.64l20.032 40.032 33 13.001 47.123-27.123 16.517-36.517-13-33.001z" fill="#f7f9f8"/><path d="m296.984 201.525 19.251 39.251 33.782 13.783c6.235-6.235 57.74-57.74 63.64-63.64l-12.77-32.77-40.264-20.264z" fill="#dfddf0"/><path d="m74.246 403.051c-15.108 15.108-59.105 59.104-74.246 74.246l10.606 10.606 39.799-29.799 34.447-44.447 5.085-14.915z" fill="#dfddf0"/><path d="m10.606 487.903 10.606 10.607 74.246-74.246 4.696-15.304-15.303 4.697z" fill="#c0c5e1"/><path d="m95.459 339.411c-41.829 41.829-41.925 41.925-42.427 42.427l31.82 31.819 34.219-14.219 8.207-28.207-4.083-24.084z" fill="#f7f9f8"/><path d="m127.278 371.232-42.426 42.426 31.82 31.819c3.703-3.703 36.657-36.657 42.426-42.426l-4.99-24.99z" fill="#dfddf0"/><path d="m243.952 148.492c-20.622 20.622-149.023 149.023-169.707 169.706l53.033 53.033 87.21-67.21 82.496-102.496z" fill="#dd5a89"/><path d="m127.278 371.232 53.033 53.032 42.427-42.426.607-20.606 20.606-.608 21.214-21.213 1.356-21.356 19.857.143 21.214-21.214.606-20.606 20.607-.607 21.213-21.212-53.034-53.034z" fill="#a72fb8"/><g fill="#dfddf0"><path d="m275.771 222.739c-7.419 7.419-13.794 13.794-21.213 21.213 7.071 7.071 45.962 45.961 53.033 53.033l21.213-21.213c-7.071-7.072-45.961-45.962-53.033-53.033z"/><path d="m212.132 286.378c7.071 7.071 45.962 45.962 53.033 53.033l21.213-21.213c-14.279-14.279-44.715-44.715-53.033-53.033l-10.606 10.606z"/><path d="m169.706 328.805c4.266 4.266 47.713 47.713 53.032 53.032 2.177-2.177-7.857 7.858 21.213-21.213-4.266-4.266-47.713-47.713-53.032-53.032-2.177 2.177 7.857-7.858-21.213 21.213z"/></g><path d="m418 61.769-7.475-7.475-10.581-4.368c-4.394 4.394-38.093 38.093-42.427 42.427l6.831 13.044 17.488 11.276 31.151-11.151 11.275-31.275z" fill="#f7f9f8"/><path d="m427.37 71.14-48.64 48.639c4.388 4.387 19.175 19.174 24.32 24.32 7.637-7.637 41.002-41.003 48.639-48.64-6.447-6.448-20.326-20.326-24.319-24.319z" fill="#dfddf0"/><path d="m381.837 116.672-74.246-74.246c-7.419 7.419-13.794 13.794-21.213 21.213l74.246 74.246v.001l20.607-.607c.078-2.65.539-18.307.606-20.607z" fill="#dfddf0"/><path d="m381.837 116.673-21.213 21.213 74.246 74.246c7.419-7.419 13.794-13.794 21.213-21.213z" fill="#c0c5e1"/><path d="m445.477 53.033-53.034-53.033c-7.419 7.419-13.794 13.794-21.213 21.213l53.033 53.033c12.757-.375 7.85-.231 20.606-.606l.608-20.607-21.213 21.213" fill="#dfddf0"/><path d="m424.264 74.246 21.213-21.213-21.213 21.213 53.033 53.033c7.419-7.419 13.794-13.794 21.213-21.213l-53.033-53.033" fill="#c0c5e1"/></g></svg>